<svg width="52" height="33" viewBox="0 0 52 33" fill="none" xmlns="http://www.w3.org/2000/svg">
<g filter="url(#filter0_d_11_148)">
<path d="M45.443 20.4896C45.443 19.8439 45.9628 19.3201 46.6028 19.3201C47.2432 19.3201 47.7624 19.8439 47.7624 20.4896C47.7624 21.1353 47.2432 21.6589 46.6028 21.6589C45.9628 21.6589 45.443 21.1353 45.443 20.4896Z" fill="#050038"/>
<path d="M8.45164 17.3917C8.45164 16.6509 8.30969 16.1013 8.02576 15.7432C7.74148 15.3855 7.31085 15.2069 6.73193 15.2069H6.11609V19.7369H6.58726C7.2303 19.7369 7.70153 19.5447 8.00157 19.1589C8.30126 18.7737 8.45164 18.1846 8.45164 17.3917ZM10.6479 17.3145C10.6479 18.6642 10.2881 19.7041 9.56855 20.434C8.84898 21.1643 7.83746 21.5294 6.53358 21.5294H4V13.4424H6.71043C7.96765 13.4424 8.93825 13.7744 9.62223 14.438C10.3059 15.102 10.6479 16.0604 10.6479 17.3145Z" fill="#050038"/>
<path d="M37.867 19.991C38.1391 19.991 38.4634 19.9213 38.8416 19.7829V21.3007C38.5701 21.4212 38.3113 21.5075 38.0656 21.5585C37.8196 21.6103 37.5324 21.6361 37.2018 21.6361C36.5249 21.6361 36.0369 21.4645 35.7378 21.122C35.4388 20.7795 35.2891 20.2537 35.2891 19.544V17.0573H34.5826V15.498H35.2891V13.9341L37.3206 13.6011V15.498H38.6077V17.0573H37.3206V19.4052C37.3206 19.7958 37.5029 19.991 37.867 19.991Z" fill="#050038"/>
<path d="M41.3855 17.7655C41.413 17.4352 41.5067 17.1933 41.6665 17.0386C41.8269 16.8843 42.0249 16.8071 42.2618 16.8071C42.5202 16.8071 42.7256 16.8937 42.878 17.0684C43.0314 17.242 43.1112 17.4745 43.1176 17.7655H41.3855ZM44.2289 16.1019C43.7496 15.6281 43.0696 15.3909 42.19 15.3909C41.2654 15.3909 40.5539 15.6633 40.0551 16.2082C39.5568 16.753 39.3074 17.5348 39.3074 18.5534C39.3074 19.5399 39.5769 20.3006 40.1145 20.8346C40.6525 21.3686 41.408 21.636 42.3809 21.636C42.8481 21.636 43.2503 21.6038 43.5872 21.5399C43.9221 21.4766 44.2463 21.3622 44.5608 21.197L44.251 19.8376C44.0225 19.9317 43.805 20.0041 43.5996 20.0518C43.3029 20.1212 42.9774 20.1561 42.6229 20.1561C42.2344 20.1561 41.9275 20.0603 41.7027 19.8688C41.4778 19.6769 41.358 19.4123 41.3442 19.0752H44.9481V18.149C44.9481 17.2579 44.7085 16.5754 44.2289 16.1019Z" fill="#050038"/>
<path d="M17.6658 21.5298H19.6818V13.4089H17.6658V21.5298Z" fill="#050038"/>
<path d="M22.5141 18.5007C22.5141 19.0186 22.5813 19.4135 22.7152 19.6849C22.8495 19.9566 23.0743 20.0923 23.3904 20.0923C23.7032 20.0923 23.9244 19.9566 24.0533 19.6849C24.1821 19.4135 24.2462 19.0186 24.2462 18.5007C24.2462 17.9857 24.1811 17.5972 24.0506 17.335C23.9197 17.072 23.6966 16.9403 23.3801 16.9403C23.0706 16.9403 22.8495 17.0713 22.7152 17.3319C22.5813 17.5928 22.5141 17.9823 22.5141 18.5007ZM26.2982 18.5007C26.2982 19.4872 26.0418 20.2568 25.5276 20.8084C25.0138 21.3603 24.2946 21.6365 23.37 21.6365C22.4833 21.6365 21.7774 21.3543 21.2536 20.7898C20.729 20.2253 20.4669 19.4626 20.4669 18.5007C20.4669 17.5173 20.7237 16.7532 21.2379 16.2083C21.752 15.6635 22.4729 15.3911 23.4012 15.3911C23.9748 15.3911 24.4822 15.5173 24.9219 15.7694C25.3619 16.0216 25.7015 16.3826 25.9401 16.853C26.1791 17.3228 26.2982 17.8724 26.2982 18.5007Z" fill="#050038"/>
<path d="M27.0989 21.5301H29.1153V18.4221V15.4978H27.0989V21.5301Z" fill="#050038"/>
<path d="M27.0989 14.7681H29.1153V13.4087H27.0989V14.7681Z" fill="#050038"/>
<path d="M33.2002 19.9915C33.4725 19.9915 33.7966 19.9217 34.1749 19.7834V21.3011C33.903 21.4216 33.6446 21.5079 33.3989 21.559C33.1533 21.6108 32.865 21.6365 32.5351 21.6365C31.8581 21.6365 31.3701 21.4649 31.0704 21.1225C30.7721 20.78 30.6223 20.2541 30.6223 19.5444V17.0578H29.9163V15.4984H30.6223V13.9579L32.6542 13.6016V15.4984H33.9406V17.0578H32.6542V19.4057C32.6542 19.7962 32.8365 19.9915 33.2002 19.9915Z" fill="#050038"/>
<path d="M13.3238 17.766C13.3513 17.4357 13.445 17.1937 13.6047 17.0391C13.7648 16.8847 13.9632 16.8076 14.2005 16.8076C14.4583 16.8076 14.6636 16.8942 14.8163 17.0689C14.9697 17.2425 15.0493 17.475 15.0563 17.766H13.3238ZM16.1675 16.1024C15.6879 15.6285 15.0083 15.3914 14.1283 15.3914C13.2034 15.3914 12.4922 15.6637 11.9938 16.2086C11.4954 16.7534 11.2457 17.5352 11.2457 18.5538C11.2457 19.5403 11.5149 20.301 12.0532 20.8351C12.5909 21.369 13.3463 21.6364 14.3193 21.6364C14.7865 21.6364 15.1885 21.6042 15.5254 21.5403C15.8604 21.477 16.1847 21.3626 16.4995 21.1975L16.1894 19.838C15.9608 19.9322 15.7433 20.0046 15.5383 20.0523C15.2409 20.1216 14.9157 20.1566 14.5612 20.1566C14.1729 20.1566 13.8659 20.0607 13.641 19.8692C13.4158 19.6773 13.2964 19.4127 13.2826 19.0756H16.8864V18.1494C16.8864 17.2583 16.6468 16.5758 16.1675 16.1024Z" fill="#050038"/>
</g>
<defs>
<filter id="filter0_d_11_148" x="0" y="0" width="53" height="41" filterUnits="userSpaceOnUse" color-interpolation-filters="sRGB">
<feFlood flood-opacity="0" result="BackgroundImageFix"/>
<feColorMatrix in="SourceAlpha" type="matrix" values="0 0 0 0 0 0 0 0 0 0 0 0 0 0 0 0 0 0 127 0" result="hardAlpha"/>
<feOffset dy="4"/>
<feGaussianBlur stdDeviation="2"/>
<feComposite in2="hardAlpha" operator="out"/>
<feColorMatrix type="matrix" values="0 0 0 0 0 0 0 0 0 0 0 0 0 0 0 0 0 0 0.25 0"/>
<feBlend mode="normal" in2="BackgroundImageFix" result="effect1_dropShadow_11_148"/>
<feBlend mode="normal" in="SourceGraphic" in2="effect1_dropShadow_11_148" result="shape"/>
</filter>
</defs>
</svg>
